<?xml version="1.0" encoding="utf-8"?>
<!-- Generator: Adobe Illustrator 18.1.1, SVG Export Plug-In . SVG Version: 6.00 Build 0)  -->
<svg version="1.1" xmlns="http://www.w3.org/2000/svg" xmlns:xlink="http://www.w3.org/1999/xlink" x="0px" y="0px"
	 viewBox="-359 361 1200 1200" enable-background="new -359 361 1200 1200" xml:space="preserve">
<g id="borde" display="none">
	<circle display="inline" fill="none" stroke="#000000" stroke-width="40" stroke-miterlimit="10" cx="238.5" cy="949" r="562.1"/>
</g>
<g id="inner">
	<line fill="none" stroke="#000000" stroke-width="40" stroke-miterlimit="10" x1="-18" y1="495.3" x2="698.8" y2="1193.5"/>
	<line fill="none" stroke="#000000" stroke-width="40" stroke-miterlimit="10" x1="495" y1="495.3" x2="-221.8" y2="1193.5"/>
	<line fill="none" stroke="#000000" stroke-width="40" stroke-miterlimit="10" x1="-18" y1="495.3" x2="-227.2" y2="1183.2"/>
	<line fill="none" stroke="#000000" stroke-width="40" stroke-miterlimit="10" x1="489.1" y1="491.9" x2="704.2" y2="1183.2"/>
	<line fill="none" stroke="#000000" stroke-width="40" stroke-miterlimit="10" x1="-83.1" y1="1058.4" x2="561.2" y2="1059.5"/>
	<line fill="none" stroke="#000000" stroke-width="40" stroke-miterlimit="10" x1="-83.1" y1="1058.4" x2="238.5" y2="1470.2"/>
	<circle fill="none" stroke="#000000" stroke-width="40" stroke-miterlimit="10" cx="238.5" cy="949" r="521.2"/>
</g>
<g id="original" display="none">
	<g transform="translate(0.000000,1200.000000) scale(0.100000,-0.100000)" display="inline">
		<path d="M2065,8229c-115-4-230-12-255-18s-74-10-110-11c-36,0-92-7-125-15s-78-14-101-15c-22,0-63-7-90-15s-66-15-86-15
			s-49-5-65-11c-15-6-50-14-78-19c-51-7-106-20-205-47c-30-8-80-21-110-29c-153-42-256-73-298-90c-18-8-40-14-48-14c-9,0-28-6-42-14
			c-15-8-45-21-67-29c-99-37-131-50-305-123c-167-71-404-185-535-259c-247-139-542-331-665-432c-8-7-29-23-46-35
			c-55-40-212-168-243-199c-9-8-63-56-121-106c-118-103-352-337-455-458c-38-44-74-85-80-91c-28-30-157-189-193-238
			c-12-17-28-38-35-46c-103-126-304-435-437-675c-106-190-275-556-345-745c-31-85-48-127-61-152c-8-14-14-33-14-42c0-8-6-30-14-48
			c-17-42-45-134-90-300c-51-188-67-252-76-308c-4-25-12-65-18-90c-18-74-33-160-43-240c-4-41-13-93-19-115c-5-22-10-64-10-93
			c0-28-7-98-16-155c-23-148-23-936,0-1084c9-57,16-127,16-155c0-29,5-71,10-93c6-22,15-74,19-115c10-80,25-166,43-240
			c6-25,14-65,18-90c7-45,20-99,46-197c65-245,99-360,120-411c8-18,14-40,14-48c0-9,6-28,14-42c13-25,21-46,60-149
			c75-202,240-557,346-748c133-240,334-549,437-675c7-8,23-29,35-46c36-49,165-208,193-238c6-6,42-47,80-91c103-121,337-355,455-458
			c58-50,112-98,121-106c31-31,188-159,243-199c17-12,38-28,46-35c121-100,435-305,655-427c201-111,562-279,768-356
			c103-39,124-47,149-60c14-8,33-14,42-14c8,0,30-6,48-14c51-21,200-65,413-121c103-27,151-38,200-45c28-5,63-13,78-19
			c16-6,45-11,65-11s59-7,86-15s68-15,90-15c23-1,68-7,101-15s87-15,120-15s98-7,145-16c69-13,171-16,545-16s476,3,545,16
			c47,9,112,16,145,16s87,7,120,15s78,14,101,15c22,0,63,7,90,15s66,15,86,15s49,5,65,11c15,6,51,14,78,19c61,9,120,23,313,76
			c166,45,258,73,300,90c18,8,40,14,48,14c9,0,28,6,42,14c25,13,67,30,152,61c193,71,565,244,765,355c176,98,494,301,600,384
			c22,17,45,34,50,38c6,4,34,27,64,50c30,24,77,61,105,83c53,41,97,79,125,106c9,8,63,56,121,106c157,136,366,351,545,562
			c11,13,27,31,35,39s33,39,55,67c22,29,59,76,83,106c23,30,46,59,50,64c4,6,21,28,38,50c83,106,286,424,384,600
			c111,201,279,562,356,768c39,103,47,124,60,149c8,14,14,33,14,42c0,8,6,30,14,48c21,51,55,166,120,411c26,98,39,152,46,197
			c4,25,12,65,18,90c18,74,33,160,43,240c4,41,13,93,19,115c5,22,10,64,10,93c0,28,7,98,16,155c23,148,23,936,0,1084
			c-9,57-16,127-16,155c0,29-5,71-10,93c-6,22-15,74-19,115c-10,80-25,166-43,240c-6,25-14,65-18,90c-7,46-21,103-47,200
			c-8,30-21,78-28,105c-32,122-74,262-91,303c-8,18-14,40-14,48c0,9-6,28-14,42c-13,25-30,67-61,152c-70,189-249,576-350,755
			c-139,247-331,542-432,665c-7,8-23,29-35,46c-36,49-165,208-193,238c-6,6-42,47-80,91c-103,121-337,355-455,458
			c-58,50-112,98-121,106c-28,27-72,65-125,106c-28,22-75,59-105,83c-30,23-58,46-64,50c-5,4-28,21-50,38c-106,83-424,286-600,384
			c-201,111-562,279-767,356c-104,39-125,47-150,60c-14,8-33,14-42,14c-8,0-30,6-48,14c-41,17-174,57-305,92c-29,8-77,20-105,28
			c-101,27-153,39-203,46c-27,5-63,13-78,19c-16,6-45,11-65,11s-59,7-86,15s-68,15-90,15c-23,1-68,7-101,15s-86,15-118,15
			c-31,0-99,6-150,14C2812,8232,2350,8240,2065,8229z M2687,7880c383-21,803-87,1113-175c25-7,74-21,110-30c67-19,336-105,380-123
			c14-5,45-18,70-27c25-10,54-21,65-26c11-4,65-27,120-49c124-52,427-200,520-255c39-22,77-44,85-48s24-13,35-20
			c181-113,442-290,535-363c25-19,52-41,60-47c296-228,699-631,927-927c6-8,28-35,47-60c58-73,236-333,316-460c55-88,59-94,66-110
			c4-8,17-31,29-50c97-155,260-504,367-785c26-67,108-313,118-350c4-16,18-66,30-110c70-252,117-490,160-810c18-128,40-497,40-660
			s-22-532-40-660c-43-320-90-558-160-810c-12-44-26-93-30-110c-10-40-94-286-120-355c-12-30-25-66-30-80c-9-28-91-218-139-322
			c-17-37-31-73-31-79c0-7-6-20-14-28c-8-9-40-65-71-126c-32-60-68-126-80-145s-25-42-29-50s-12-24-19-35c-113-181-290-442-363-535
			c-19-25-41-52-47-60c-228-296-631-699-927-927c-8-6-35-28-60-47c-73-58-333-236-460-316c-87-55-94-59-110-67c-8-4-46-26-85-48
			c-93-55-396-203-520-255c-55-22-109-45-120-49c-11-5-40-16-65-26c-25-9-56-21-69-26c-47-19-318-106-381-124c-36-9-85-23-110-30
			c-394-111-958-185-1415-185s-1021,74-1415,185c-25,7-74,21-110,30c-63,18-334,105-381,124c-13,5-44,17-69,26c-25,10-54,21-65,26
			c-11,4-65,27-120,49c-124,52-427,200-520,255c-38,22-77,44-85,48s-24,13-35,20c-181,113-442,290-535,363c-25,19-52,41-60,47
			c-296,228-699,631-927,927c-6,8-28,35-47,60c-58,73-236,333-316,460c-55,87-59,94-67,110c-4,8-26,47-48,85
			c-78,132-281,561-315,665c-5,14-18,50-30,80c-26,69-110,315-120,355c-4,17-18,66-30,110c-70,252-117,490-160,810
			c-18,128-40,497-40,660s22,532,40,660c43,320,90,558,160,810c12,44,26,94,30,110c10,37,92,283,118,350c107,281,270,630,367,785
			c12,19,25,42,29,50s12,24,19,35c113,181,290,442,363,535c19,25,41,52,47,60c228,296,631,699,927,927c8,6,35,28,60,47
			c73,58,333,236,460,316c87,55,94,59,110,67c8,4,47,26,85,48c93,55,396,203,520,255c55,22,109,45,120,49c11,5,40,16,65,26
			c25,9,56,22,70,27c40,16,292,99,325,108c17,4,66,18,110,30c253,70,491,117,815,161C1973,7884,2392,7897,2687,7880z"/>
		<path d="M1890,7489c-495-51-875-139-1319-304c-117-43-153-58-296-125c-33-15-68-30-77-34c-19-6-25-52-9-58c10-3,391-375,1456-1420
			c121-118,330-323,465-455c183-180,249-239,262-234c26,9,2188,2146,2188,2162c0,4-28,20-62,37c-312,150-704,277-1100,356
			c-159,32-367,61-572,81C2601,7516,2122,7513,1890,7489z"/>
		<path d="M5140,6691c0-5,24-83,54-173c30-89,96-291,146-448c99-305,191-583,225-680c7-19,20-62,30-95c9-33,23-75,31-93s14-39,14-47
			s6-29,14-47c17-42,35-94,46-133c5-16,14-46,21-65c6-19,17-51,24-70s20-62,30-95c9-33,23-76,30-95c31-88,37-107,46-143
			c5-21,13-45,18-55c5-9,16-44,26-77c9-33,23-76,30-95c29-82,37-107,45-135c11-39,29-91,46-133c8-18,14-41,14-52s6-34,14-52
			c17-42,35-94,46-133c8-29,18-58,45-135c7-19,27-82,45-140s38-121,45-140c30-84,37-107,46-143c5-21,13-45,18-55c5-9,17-44,27-77
			s24-71,31-85s13-33,13-42c0-10,6-32,14-50c17-42,35-94,46-133c8-28,16-53,45-135c7-19,21-62,30-95c10-33,21-68,26-77
			c5-10,13-34,18-55c9-36,15-55,46-143c7-19,21-62,30-95c10-33,23-76,30-95s18-51,24-70c7-19,16-48,21-65c11-39,29-91,46-133
			c8-18,14-39,14-47s6-29,14-47s22-60,31-93c10-33,23-76,30-95s18-51,24-70c7-19,16-48,21-65c4-16,12-41,18-55c5-14,18-52,27-85
			c10-33,23-76,30-95s18-51,24-70c7-19,16-48,21-65c5-16,14-46,21-65c6-19,17-51,24-70s20-62,30-95c9-33,21-71,27-85
			c5-13,19-51,30-85c11-33,24-64,29-69c17-18,88,183,183,519c62,215,120,557,151,879c32,334,17,810-35,1181c-31,212-76,440-116,580
			c-81,286-164,530-230,674c-87,190-200,419-250,506c-19,33-39,69-45,80c-10,21-14,28-69,115c-117,186-338,493-411,572
			c-19,20-59,65-89,99c-176,203-277,302-604,593c-83,73-466,346-487,346C5144,6700,5140,6696,5140,6691z"/>
		<path d="M-535,6603c-94-68-310-230-331-249c-12-11-57-50-100-89c-224-200-346-322-504-504c-30-34-70-79-89-99
			c-73-79-294-386-411-572c-55-87-59-94-69-115c-6-11-26-47-45-80c-50-87-163-316-250-506c-86-189-205-557-266-824
			c-11-49-23-99-26-110c-61-254-104-693-104-1060s43-806,104-1060c3-11,15-60,26-110c38-166,92-354,147-510c19-55,40-115,46-132
			c6-18,16-33,22-33c7,0,21,30,33,68c27,86,41,129,58,170c8,18,14,41,14,52s6,34,14,52c21,51,37,99,46,138c9,39,25,87,46,138
			c8,18,14,41,14,52s6,34,14,52s22,60,31,93c17,56,23,77,55,165c6,19,15,51,20,70c4,19,12,46,17,60c6,14,18,52,28,85
			c9,33,23,76,30,95s20,62,30,95c9,33,23,76,30,95c7,19,20,62,30,95c9,33,23,76,30,95s20,62,30,95c37,126,48,161,61,193
			c8,18,14,40,14,50c0,9,7,30,15,46c8,15,15,37,15,47s6,33,14,51c7,18,21,60,31,93c9,33,23,76,30,95s20,62,30,95c9,33,23,76,31,95
			c7,19,21,60,30,90s23,70,30,88c8,18,14,41,14,51s7,32,15,47c8,16,15,37,15,46c0,10,6,32,14,50c7,18,21,60,31,93c9,33,23,76,30,95
			s20,62,30,95c9,33,23,75,31,93s14,44,14,57s4,26,9,30c5,3,12,20,16,38c7,34,30,109,50,167c7,19,21,62,30,95c10,33,23,76,30,95
			s21,62,30,95c10,33,23,76,30,95s21,62,30,95c10,33,22,71,28,85c5,14,13,41,17,60c9,38,25,86,46,138c8,18,14,41,14,52s6,34,14,52
			c21,51,37,99,46,138s25,87,46,138c8,18,14,41,14,52s6,34,14,52c21,51,37,99,46,138c8,33,13,51,45,140c7,19,28,82,45,140
			c18,58,45,143,60,190c47,147,89,281,121,385c17,55,44,139,60,187c16,47,29,89,29,92C-450,6650-490,6635-535,6603z"/>
		<path d="M-38,6588c-5-7-15-32-21-56c-7-23-22-75-35-115c-13-39-38-119-56-177c-17-58-38-123-45-145c-8-22-35-107-60-190
			c-26-82-53-168-60-190c-8-22-28-87-46-145c-17-58-44-143-59-190s-42-132-60-190s-45-143-60-190s-42-132-60-190
			c-17-58-38-123-45-145c-8-22-35-107-60-190c-25-82-52-166-59-185c-28-76-38-106-46-140c-9-39-25-87-46-138c-8-18-14-41-14-52
			s-6-34-14-52c-7-18-21-60-31-93c-9-33-23-76-30-95s-20-62-30-95c-9-33-23-76-30-95s-20-62-30-95c-9-33-23-76-30-95
			c-20-58-43-133-50-167c-4-18-11-35-16-38c-5-4-9-17-9-30s-6-39-14-57c-7-18-21-60-31-93c-9-33-23-76-30-95s-20-62-30-95
			c-9-33-23-75-31-93s-14-40-14-50c0-9-7-30-15-46c-8-15-15-37-15-47s-6-33-14-51c-7-18-21-60-31-93c-9-33-22-71-27-85
			c-6-14-14-41-18-60c-5-19-14-51-20-70c-32-88-38-109-55-165c-9-33-23-75-31-93s-14-41-14-52s-6-34-14-52c-30-70-47-120-91-273
			c-10-33-23-76-30-95s-21-62-30-95c-10-33-23-76-30-95s-21-62-30-95c-10-33-23-76-30-95s-21-62-30-95c-10-33-24-75-31-93
			c-8-18-14-41-14-51s-7-32-15-47c-8-16-15-37-15-46c0-10-7-33-16-52s-14-42-10-51c5-13,43,20,175,152c92,92,350,348,572,568
			c222,219,591,584,819,810s788,780,1244,1230c1078,1067,1176,1164,1176,1171c0,5-236,240-511,508c-90,88-290,284-444,436
			c-154,151-365,358-470,458c-104,101-294,287-421,413s-235,229-241,229S-32,6594-38,6588z"/>
		<path d="M4494,6377c-122-122-529-526-904-897c-729-720-913-905-919-922c-2-6,63-76,145-155s248-242,369-361
			c356-350,623-611,1080-1057c237-231,540-528,675-660s326-319,425-415s232-227,296-290s222-218,350-344c129-127,330-324,447-439
			c157-155,216-207,224-199c9,9,7,20-4,44c-20,42-38,94-48,138c-4,19-14,51-20,70c-7,19-18,51-25,70s-18,51-24,70c-7,19-16,49-20,65
			c-4,17-13,40-19,52c-7,12-12,29-12,38s-6,31-13,48c-8,18-22,59-31,92c-10,33-24,75-32,93s-14,39-14,47s-6,29-14,47s-30,83-50,143
			c-37,117-50,155-95,285c-7,19-16,49-21,65c-8,28-16,53-45,135c-7,19-21,62-30,95c-10,33-23,76-30,95s-18,51-24,70
			c-7,19-16,49-20,65c-4,17-13,40-19,52c-7,12-12,32-12,45s-4,28-9,33c-6,6-14,28-20,50c-5,22-15,56-22,75c-6,19-17,51-24,70
			s-18,51-24,70c-7,19-16,49-21,65c-8,28-16,53-45,135c-7,19-21,62-30,95c-10,33-23,76-30,95s-18,51-24,70c-7,19-16,49-21,65
			c-4,17-12,41-18,55c-5,14-18,52-27,85c-10,33-23,76-30,95s-18,51-24,70c-7,19-16,49-21,65c-5,17-14,46-21,65c-6,19-17,51-24,70
			s-20,62-30,95c-9,33-23,76-30,95c-14,41-19,56-84,250c-27,80-83,253-126,385s-110,339-150,460s-107,328-150,460s-110,339-150,460
			c-39,121-89,274-110,340c-46,144-55,165-69,165C4720,6599,4615,6499,4494,6377z"/>
		<path d="M1979,3887C1641,3552,308,2235-142,1791c-99-97-178-183-178-193c0-17,114-18,2705-18c2664,0,2705,0,2705,19
			c0,11-12,29-27,41c-30,23-242,230-714,694c-168,166-357,350-420,411c-62,60-254,247-424,415c-577,568-1107,1085-1119,1092
			c-6,4-15,8-21,8C2360,4260,2186,4092,1979,3887z"/>
		<path d="M-367,1173c-17-6-3-33,52-98c23-27,90-115,150-195S-23,693,17,643c40-51,106-135,146-185c69-88,244-315,332-433
			c79-105,317-412,406-525c50-63,152-196,227-295c74-99,138-182,142-185c3-3,44-54,90-115c105-138,323-418,330-425c3-3,18-23,33-46
			c15-22,35-49,45-60c9-10,30-37,47-59c16-22,37-49,47-60c19-22,132-170,360-470c84-110,158-206,164-213c7-7,55-67,107-135
			c138-178,103-163,319-143c332,31,672,89,893,152c286,81,530,164,674,230c190,87,419,200,506,250c33,19,69,39,80,45
			c21,10,28,14,115,69c164,103,476,326,556,396c355,316,392,353,708,708c42,48,198,260,277,376c144,213,219,338,219,363
			c0,13-228,241-580,581c-107,103-315,307-461,452l-267,264l-2943-1C970,1179-361,1176-367,1173z"/>
		<path d="M-1097,847c-132-133-398-398-590-588c-191-190-356-355-366-366c-17-20-17-22,5-62c89-163,372-572,474-687
			c316-355,353-392,708-708c80-70,392-293,556-396c87-55,94-59,115-69c11-6,47-26,80-45c87-50,316-163,506-250
			c144-66,388-149,674-230c64-19,268-64,365-82c199-37,616-86,636-75c17,9,2,37-61,116c-30,39-124,160-207,270
			c-84,110-158,206-165,213c-7,8-55,68-106,134c-127,165-428,558-539,703c-82,107-222,286-266,340c-10,11-30,38-47,60
			c-16,22-37,49-47,60c-16,19-184,239-405,530c-59,77-118,154-132,171C63-81,59-76-91,119c-57,74-155,200-216,280
			c-62,80-174,227-250,326c-176,231-261,337-281,352C-853,1087-890,1054-1097,847z"/>
	</g>
</g>
</svg>
